<?xml version="1.0" encoding="UTF-8"?>
<svg version="1.1" xmlns="http://www.w3.org/2000/svg" width="243" height="97">
<path d="M0 0 C3.3125 1.375 3.3125 1.375 6 3 C6.78375 3.391875 7.5675 3.78375 8.375 4.1875 C8.91125 4.455625 9.4475 4.72375 10 5 C10.928125 4.360625 11.85625 3.72125 12.8125 3.0625 C17.82682586 -0.18206379 22.15514873 -0.81336118 28 0 C33.62874962 2.11324986 36.67853024 5.19531505 39.21704102 10.57910156 C40.73110962 15.26058091 40.45084134 20.00538476 40.3125 24.875 C40.30283203 25.91914062 40.29316406 26.96328125 40.28320312 28.0390625 C40.16966893 35.66066213 40.16966893 35.66066213 39 38 C35.625 38.125 35.625 38.125 32 38 C29.49853727 35.49853727 29.71898704 34.59338742 29.62109375 31.1328125 C29.58693359 30.16472656 29.55277344 29.19664063 29.51757812 28.19921875 C29.49115234 27.18472656 29.46472656 26.17023437 29.4375 25.125 C29.37739565 23.12748948 29.31373037 21.13008216 29.24609375 19.1328125 C29.22216553 18.24480957 29.1982373 17.35680664 29.17358398 16.44189453 C29.01229268 14.17292735 28.62922056 12.18024133 28 10 C23.28943123 9.53817953 20.06896357 9.30962769 16 11.9375 C13.31897378 16.0428214 13.19585067 19.18766921 13 24 C12.84087321 26.33385965 12.67393704 28.66719737 12.5 31 C12.4278125 32.11375 12.355625 33.2275 12.28125 34.375 C12 37 12 37 11 38 C8.66702567 38.04092937 6.33294775 38.04241723 4 38 C2.22140706 34.92587235 1.7433158 32.65738937 1.69140625 29.12109375 C1.66626953 28.20005859 1.64113281 27.27902344 1.61523438 26.33007812 C1.58000816 24.39785486 1.54877381 22.46555478 1.52148438 20.53320312 C1.49505859 19.61345703 1.46863281 18.69371094 1.44140625 17.74609375 C1.42795166 16.90747803 1.41449707 16.0688623 1.40063477 15.20483398 C0.91156891 12.51333261 0.17460014 11.61994374 -2 10 C-5.90288606 9.40608256 -7.50098592 9.66732395 -10.8125 11.875 C-13.76550751 14.74363587 -14.12176533 16.2638169 -14.24609375 20.24609375 C-14.27896484 21.08333984 -14.31183594 21.92058594 -14.34570312 22.78320312 C-14.40676158 24.54870188 -14.46407074 26.31433439 -14.51757812 28.08007812 C-14.55173828 28.91861328 -14.58589844 29.75714844 -14.62109375 30.62109375 C-14.6461499 31.3886499 -14.67120605 32.15620605 -14.69702148 32.94702148 C-15 35 -15 35 -17 38 C-20.0625 38.25 -20.0625 38.25 -23 38 C-26.63537244 34.36462756 -25.18404686 23.23702348 -25.1875 18.375 C-25.19974609 17.45976563 -25.21199219 16.54453125 -25.22460938 15.6015625 C-25.23532541 10.65790037 -24.94818691 6.6356068 -23 2 C-20.6875 1.375 -20.6875 1.375 -18 1 C-17.01 1.66 -16.02 2.32 -15 3 C-14.195625 2.505 -13.39125 2.01 -12.5625 1.5 C-8.17422408 -0.34769513 -4.69643996 -0.64080689 0 0 Z " fill="#FDFCF3" transform="translate(27,30)"/>
<path d="M0 0 C3 1 3 1 4.6875 3.875 C6 7 6 7 6 10 C9.08089673 7.22719294 10.68775452 4.93673644 12 1 C13.32 1 14.64 1 16 1 C16.33 3.97 16.66 6.94 17 10 C18.32 7.03 19.64 4.06 21 1 C22.32 1 23.64 1 25 1 C25.50615298 2.26839526 26.00469099 3.53983102 26.5 4.8125 C26.7784375 5.52019531 27.056875 6.22789063 27.34375 6.95703125 C28 9 28 9 28 12 C28.66 12 29.32 12 30 12 C30 8.37 30 4.74 30 1 C34.58219161 0.1188093 36.92224202 -0.17480426 41 2 C43.68993053 1.69621948 43.68993053 1.69621948 46 1 C46.495 2.485 46.495 2.485 47 4 C47.40532959 3.51982422 47.81065918 3.03964844 48.22827148 2.54492188 C53.96112262 -2.45404216 66.41223703 0.12753823 73.4375 0.5 C75.74843934 0.61968501 78.05963733 0.73450537 80.37109375 0.84375 C81.38099365 0.89724609 82.39089355 0.95074219 83.43139648 1.00585938 C86.12091197 1.13417537 86.12091197 1.13417537 89 0 C90 1 90 1 90.09765625 3.94140625 C90.08605469 5.13636719 90.07445312 6.33132812 90.0625 7.5625 C90.05347656 8.76003906 90.04445313 9.95757812 90.03515625 11.19140625 C90.02355469 12.11824219 90.01195312 13.04507813 90 14 C91.65 14 93.3 14 95 14 C95.0825 13.360625 95.165 12.72125 95.25 12.0625 C96.29520372 7.79458483 98.14091826 3.96892333 100 0 C103 1 103 1 104.38671875 3.6171875 C105.03060547 5.22980469 105.03060547 5.22980469 105.6875 6.875 C106.12449219 7.94492188 106.56148438 9.01484375 107.01171875 10.1171875 C108 13 108 13 108 16 C107.443125 15.855625 106.88625 15.71125 106.3125 15.5625 C105.549375 15.376875 104.78625 15.19125 104 15 C103.13375 14.773125 102.2675 14.54625 101.375 14.3125 C100.199375 14.1578125 100.199375 14.1578125 99 14 C98.34 14.66 97.68 15.32 97 16 C94.6171875 16.1953125 94.6171875 16.1953125 91.875 16.125 C90.96492188 16.10695313 90.05484375 16.08890625 89.1171875 16.0703125 C88.41851562 16.04710938 87.71984375 16.02390625 87 16 C86.505 12.535 86.505 12.535 86 9 C83.69 9.66 81.38 10.32 79 11 C78.67 12.65 78.34 14.3 78 16 C77.01 16 76.02 16 75 16 C74.505 10.06 74.505 10.06 74 4 C73.01 4 72.02 4 71 4 C70.67 7.96 70.34 11.92 70 16 C69.34 16 68.68 16 68 16 C68 12.04 68 8.08 68 4 C62.63909407 3.46326107 62.63909407 3.46326107 58 5.5 C57.67 5.995 57.34 6.49 57 7 C58.65 7 60.3 7 62 7 C62.495 8.485 62.495 8.485 63 10 C61.35 10.66 59.7 11.32 58 12 C58 12.33 58 12.66 58 13 C60.475 13.495 60.475 13.495 63 14 C62.67 14.99 62.34 15.98 62 17 C60.06183265 16.8858134 58.12444901 16.75826577 56.1875 16.625 C55.10855469 16.55539063 54.02960938 16.48578125 52.91796875 16.4140625 C50 16 50 16 47 14 C46.4740625 14.7734375 46.4740625 14.7734375 45.9375 15.5625 C44 17 44 17 40.4375 16.875 C37 16 37 16 35 13 C34.67 13.99 34.34 14.98 34 16 C31.8125 16.6875 31.8125 16.6875 29 17 C26.4375 15.625 26.4375 15.625 24 14 C21.80869466 13.30420546 21.80869466 13.30420546 20 13 C19.67 13.99 19.34 14.98 19 16 C16.69 16 14.38 16 12 16 C11.67 15.01 11.34 14.02 11 13 C10.01 14.485 10.01 14.485 9 16 C7.68 16 6.36 16 5 16 C4.67 15.34 4.34 14.68 4 14 C3.67 14.66 3.34 15.32 3 16 C2.01 16 1.02 16 0 16 C0 10.72 0 5.44 0 0 Z M52 3 C50.61767557 4.62626404 49.28062485 6.2925002 48 8 C49.51398455 11.78496138 50.0144396 12.0072198 54 14 C54 10.37 54 6.74 54 3 C53.34 3 52.68 3 52 3 Z M79 3 C78.67 4.65 78.34 6.3 78 8 C79.32 8 80.64 8 82 8 C82.33 6.68 82.66 5.36 83 4 C81.68 3.67 80.36 3.34 79 3 Z M34 4 C33.67 4.99 33.34 5.98 33 7 C33.99 7.33 34.98 7.66 36 8 C36.66 7.67 37.32 7.34 38 7 C37.67 6.01 37.34 5.02 37 4 C36.01 4 35.02 4 34 4 Z M22 7 C21.67 8.32 21.34 9.64 21 11 C21.99 11 22.98 11 24 11 C24 9.68 24 8.36 24 7 C23.34 7 22.68 7 22 7 Z M100 7 C99.67 8.32 99.34 9.64 99 11 C99.99 11 100.98 11 102 11 C102 9.68 102 8.36 102 7 C101.34 7 100.68 7 100 7 Z M41 8 C40.34 8.66 39.68 9.32 39 10 C39.16666667 12.08333333 39.16666667 12.08333333 40 14 C40.66 14.33 41.32 14.66 42 15 C43.33304698 12.10813214 43.33304698 12.10813214 42.0625 9.8125 C41.711875 9.214375 41.36125 8.61625 41 8 Z " fill="#FCFAE8" transform="translate(54,76)"/>
<path d="M0 0 C0.80566406 0.13535156 1.61132812 0.27070313 2.44140625 0.41015625 C2.77140625 0.08015625 3.10140625 -0.24984375 3.44140625 -0.58984375 C5.87890625 -0.77734375 5.87890625 -0.77734375 8.44140625 -0.58984375 C10.90574159 1.87449159 10.6778298 3.25366366 10.69364929 6.61682129 C10.68646378 7.32205933 10.67927826 8.02729736 10.671875 8.75390625 C10.67141678 9.47880249 10.67095856 10.20369873 10.67048645 10.95056152 C10.66746424 12.48382198 10.65957883 14.01707937 10.6472168 15.55029297 C10.62897864 17.90082647 10.62670699 20.25096568 10.62695312 22.6015625 C10.62203716 24.08984717 10.6162085 25.57812915 10.609375 27.06640625 C10.60826218 27.77164429 10.60714935 28.47688232 10.60600281 29.20349121 C10.55748161 34.17800553 10.55748161 34.17800553 9.44140625 36.41015625 C2.69140625 36.53515625 2.69140625 36.53515625 0.44140625 35.41015625 C-0.21859375 35.71953125 -0.87859375 36.02890625 -1.55859375 36.34765625 C-7.03641753 38.28771884 -12.47332433 38.14386216 -17.93359375 36.22265625 C-21.99345435 33.41941917 -24.69371935 29.96076857 -26.55859375 25.41015625 C-27.42813287 17.76630069 -27.30654819 10.71481706 -22.55859375 4.41015625 C-15.94144155 -2.57461552 -8.67919991 -1.81405054 0 0 Z M-14.43359375 9.34765625 C-17.21734116 13.35952752 -17.83131797 16.56930128 -17.55859375 21.41015625 C-16.77437397 24.89749633 -16.77437397 24.89749633 -14.55859375 27.41015625 C-11.35332339 28.95115162 -9.10712435 29.82024143 -5.58203125 28.88671875 C-2.32491749 27.54382288 -2.32491749 27.54382288 0.44140625 25.41015625 C0.59355799 23.12202811 0.66327117 20.82816497 0.69140625 18.53515625 C0.7171875 17.27960937 0.74296875 16.0240625 0.76953125 14.73046875 C0.73341366 11.46923548 0.73341366 11.46923548 -0.94921875 9.52734375 C-5.47085706 6.38853658 -9.82672629 6.24302818 -14.43359375 9.34765625 Z " fill="#FDFCF8" transform="translate(134.55859375,31.58984375)"/>
<path d="M0 0 C2.78211174 2.06874975 4.65812272 3.82314617 6.4375 6.8125 C6.14481707 11.10518293 6.14481707 11.10518293 4.4375 12.8125 C2.125 13.125 2.125 13.125 -0.5625 12.8125 C-1.89583333 11.47916667 -3.22916667 10.14583333 -4.5625 8.8125 C-9.12003989 7.42542264 -12.25011901 7.8067414 -16.5625 9.8125 C-16.8925 10.8025 -17.2225 11.7925 -17.5625 12.8125 C-16.40492188 12.91046875 -15.24734375 13.0084375 -14.0546875 13.109375 C-12.51553881 13.25953585 -10.97648068 13.41062691 -9.4375 13.5625 C-8.29667969 13.6553125 -8.29667969 13.6553125 -7.1328125 13.75 C-1.97177575 14.28390035 1.31703892 15.43096659 5.4375 18.8125 C7.92136059 22.53829089 7.8179212 24.39961402 7.4375 28.8125 C5.63128724 32.99530849 3.50269629 34.82947742 -0.5625 36.8125 C-6.69921094 38.73355734 -14.52470944 38.94319724 -20.5625 36.625 C-23.85370518 34.63656354 -25.68442154 33.17739057 -27.5625 29.8125 C-27.3125 26.5 -27.3125 26.5 -26.5625 23.8125 C-24.5 22.9375 -24.5 22.9375 -21.5625 22.8125 C-19.953125 24.08203125 -19.953125 24.08203125 -18.25 25.75 C-15.60525284 28.23883412 -14.04275931 29.26477822 -10.375 29.3125 C-7.17913603 28.8933703 -5.2035756 28.57321707 -2.5625 26.8125 C-2.5625 26.1525 -2.5625 25.4925 -2.5625 24.8125 C-3.84125 24.52375 -5.12 24.235 -6.4375 23.9375 C-7.25476563 23.751875 -8.07203125 23.56625 -8.9140625 23.375 C-10.67167214 23.00170238 -12.4381483 22.66785013 -14.2109375 22.375 C-23.26708188 20.85204479 -23.26708188 20.85204479 -26.5625 16.8125 C-27.89463809 12.81608574 -28.03128612 9.86726877 -26.3125 6 C-19.69091666 -2.27697917 -9.94795627 -3.31598542 0 0 Z " fill="#FDFBF3" transform="translate(219.5625,31.1875)"/>
<path d="M0 0 C5.03001392 2.10964189 8.82288173 4.87736877 11 10 C12.36162696 14.96706174 12.18383457 20.01538759 12.1875 25.125 C12.19974609 26.03121094 12.21199219 26.93742187 12.22460938 27.87109375 C12.22654297 28.74121094 12.22847656 29.61132812 12.23046875 30.5078125 C12.23457764 31.29816895 12.23868652 32.08852539 12.24291992 32.90283203 C12 35 12 35 10 38 C7 38.375 7 38.375 4 38 C1.88537896 34.82806845 1.72949427 33.87439208 1.62109375 30.21875 C1.56985352 28.83236328 1.56985352 28.83236328 1.51757812 27.41796875 C1.49115234 26.45503906 1.46472656 25.49210937 1.4375 24.5 C1.37752705 22.59362569 1.31388436 20.68736233 1.24609375 18.78125 C1.22216553 17.93626953 1.1982373 17.09128906 1.17358398 16.22070312 C1.07632641 13.82675154 1.07632641 13.82675154 0 11 C-3.10048928 9.44975536 -5.57894218 9.71007985 -9 10 C-12.2139862 11.8569698 -13.65012362 13.17493691 -15.1015625 16.59765625 C-16.18736626 20.70954787 -16.41451838 24.57878192 -16.5625 28.8125 C-16.87759516 36.87759516 -16.87759516 36.87759516 -18 38 C-20.9375 38.1875 -20.9375 38.1875 -24 38 C-26.46002787 35.53997213 -26.24552005 34.15206161 -26.27789307 30.79333496 C-26.2738446 30.08809692 -26.26979614 29.38285889 -26.265625 28.65625 C-26.26753845 27.93135376 -26.2694519 27.20645752 -26.27142334 26.45959473 C-26.27278487 24.92634738 -26.26909064 23.3930885 -26.26074219 21.85986328 C-26.25004178 19.50917741 -26.26063808 17.15925577 -26.2734375 14.80859375 C-26.2721159 13.32031081 -26.26955349 11.83202834 -26.265625 10.34375 C-26.26967346 9.63851196 -26.27372192 8.93327393 -26.27789307 8.20666504 C-26.22992486 3.22992486 -26.22992486 3.22992486 -24 1 C-21.79296875 1.09375 -21.79296875 1.09375 -19.1875 1.5 C-12.38353253 2.34563596 -6.99508469 -1.14062945 0 0 Z " fill="#FDFCF3" transform="translate(177,30)"/>
<path d="M0 0 C0.75684082 0.00862061 1.51368164 0.01724121 2.29345703 0.02612305 C17.58267517 0.26956112 17.58267517 0.26956112 20.6953125 2.48046875 C21.875 4.1875 21.875 4.1875 21.7421875 6.15625 C20.7676793 8.43888182 19.67709278 9.85794424 18 11.6875 C17.38125 12.37070312 16.7625 13.05390625 16.125 13.7578125 C15.3825 14.55960938 14.64 15.36140625 13.875 16.1875 C12.41535203 17.76912697 10.95674803 19.35169746 9.49951172 20.93554688 C8.50931255 22.00990169 7.51619795 23.08157762 6.52001953 24.15039062 C3.89370023 26.94913492 3.89370023 26.94913492 1.875 30.1875 C3.77185547 30.10048828 3.77185547 30.10048828 5.70703125 30.01171875 C7.36715065 29.96482272 9.02730989 29.91932239 10.6875 29.875 C11.52087891 29.83310547 12.35425781 29.79121094 13.21289062 29.74804688 C15.53645599 29.70138894 17.60070306 29.70256916 19.875 30.1875 C21.94921875 32.70703125 21.94921875 32.70703125 22.875 35.1875 C22.215 36.1775 21.555 37.1675 20.875 38.1875 C18.32104513 38.45461404 16.01225626 38.53599029 13.4609375 38.48046875 C12.73129791 38.47622391 12.00165833 38.47197906 11.24990845 38.46760559 C8.91623241 38.45079353 6.5834156 38.41313868 4.25 38.375 C2.66928329 38.35995634 1.08855307 38.34626738 -0.4921875 38.33398438 C-4.37012344 38.30088201 -8.24741598 38.24908404 -12.125 38.1875 C-12.785 36.8675 -13.445 35.5475 -14.125 34.1875 C-9.76103634 27.9532662 -4.79797441 22.49767522 0.4675293 17.02490234 C1.29764526 16.15212646 1.29764526 16.15212646 2.14453125 15.26171875 C2.64573486 14.74182373 3.14693848 14.22192871 3.66333008 13.6862793 C5.10477003 12.08237121 5.10477003 12.08237121 5.875 9.1875 C4.885 9.5175 3.895 9.8475 2.875 10.1875 C0.89935647 10.33199151 -1.08179761 10.40811999 -3.0625 10.4375 C-4.10277344 10.46328125 -5.14304687 10.4890625 -6.21484375 10.515625 C-9.44221419 10.15173357 -10.76213641 9.35108594 -13.125 7.1875 C-12.875 4.8125 -12.875 4.8125 -12.125 2.1875 C-8.50741907 -0.52109486 -4.31252896 -0.07679072 0 0 Z " fill="#FDFCF6" transform="translate(85.125,29.8125)"/>
<path d="M0 0 C1 1 1 1 1.1875 3.9375 C1 7 1 7 -1 9 C-0.34 9.66 0.32 10.32 1 11 C1.18729753 13.56927031 1.25574642 16.02873977 1.23046875 18.59765625 C1.22978142 19.72185219 1.22978142 19.72185219 1.2290802 20.86875916 C1.22605811 22.45329369 1.21817306 24.03782526 1.20581055 25.62231445 C1.18754683 28.05625858 1.18530089 30.48982262 1.18554688 32.92382812 C1.18063201 34.46094081 1.17480382 35.9980509 1.16796875 37.53515625 C1.16685593 38.26742935 1.1657431 38.99970245 1.16459656 39.75416565 C1.11605238 44.88394762 1.11605238 44.88394762 0 46 C-2.9375 46.1875 -2.9375 46.1875 -6 46 C-8.89321564 43.10678436 -8.2586345 40.98831999 -8.265625 36.9453125 C-8.26753845 36.24735565 -8.2694519 35.5493988 -8.27142334 34.83029175 C-8.2727851 33.35251506 -8.26908926 31.8747264 -8.26074219 30.39697266 C-8.25007411 28.14067473 -8.26062057 25.88517882 -8.2734375 23.62890625 C-8.27211527 22.19270658 -8.26955157 20.75650741 -8.265625 19.3203125 C-8.26336914 18.01336426 -8.26111328 16.70641602 -8.25878906 15.35986328 C-8.02079472 12.26997818 -7.64170417 10.5750464 -6 8 C-6.66 7.34 -7.32 6.68 -8 6 C-7.75 2.9375 -7.75 2.9375 -7 0 C-4.31633121 -1.3418344 -2.84719317 -0.73004953 0 0 Z " fill="#FDFDFA" transform="translate(237,22)"/>
<path d="M0 0 C4.95 0 9.9 0 15 0 C15.33 1.65 15.66 3.3 16 5 C18.97 5.495 18.97 5.495 22 6 C22 4.02 22 2.04 22 0 C26.33333333 0 30.66666667 0 35 0 C35 0.66 35 1.32 35 2 C33.35 2.33 31.7 2.66 30 3 C30 3.66 30 4.32 30 5 C32.475 5.99 32.475 5.99 35 7 C34.67 7.66 34.34 8.32 34 9 C32.35 9 30.7 9 29 9 C30.39195915 11.7839183 32.15575779 11.97898997 35 13 C35 13.66 35 14.32 35 15 C32.03 15 29.06 15 26 15 C26 14.34 26 13.68 26 13 C25.34 13 24.68 13 24 13 C24 13.66 24 14.32 24 15 C23.34 15 22.68 15 22 15 C22 13.02 22 11.04 22 9 C19.69 9 17.38 9 15 9 C15.2784375 9.928125 15.2784375 9.928125 15.5625 10.875 C16 13 16 13 15 15 C14.01 15 13.02 15 12 15 C12 10.71 12 6.42 12 2 C10.02 2.99 10.02 2.99 8 4 C8.01160156 4.62648438 8.02320312 5.25296875 8.03515625 5.8984375 C8.04417969 6.71570313 8.05320312 7.53296875 8.0625 8.375 C8.07410156 9.18710938 8.08570312 9.99921875 8.09765625 10.8359375 C8 13 8 13 7 15 C6.34 15 5.68 15 5 15 C4.97421875 14.15695313 4.9484375 13.31390625 4.921875 12.4453125 C4.83679688 10.80175781 4.83679688 10.80175781 4.75 9.125 C4.70359375 8.03445313 4.6571875 6.94390625 4.609375 5.8203125 C4.31153872 2.8667935 4.31153872 2.8667935 1.953125 1.6171875 C1.30859375 1.41351563 0.6640625 1.20984375 0 1 C0 0.67 0 0.34 0 0 Z " fill="#FDFAEA" transform="translate(102,6)"/>
<path d="M0 0 C0.79719955 0.00222061 1.59439911 0.00444122 2.41575623 0.00672913 C3.31661453 0.00680466 4.21747284 0.00688019 5.14562988 0.00695801 C6.12478867 0.01211929 7.10394745 0.01728058 8.11277771 0.02259827 C9.11018478 0.02401321 10.10759186 0.02542816 11.13522339 0.02688599 C14.3348027 0.03250337 17.53431315 0.04505881 20.73387146 0.05775452 C22.89728191 0.06276728 25.06069345 0.06733057 27.22410583 0.07142639 C32.53988471 0.08247845 37.85562317 0.09923348 43.17137146 0.12025452 C43.66637146 2.59525452 43.66637146 2.59525452 44.17137146 5.12025452 C28.99137146 5.12025452 13.81137146 5.12025452 -1.82862854 5.12025452 C-2.15862854 3.80025452 -2.48862854 2.48025452 -2.82862854 1.12025452 C-1.82862854 0.12025452 -1.82862854 0.12025452 0 0 Z " fill="#FEFCEB" transform="translate(4.8286285400390625,81.87974548339844)"/>
<path d="M0 0 C14.85 0 29.7 0 45 0 C45.495 0.99 45.495 0.99 46 2 C45.67 2.99 45.34 3.98 45 5 C29.82 5 14.64 5 -1 5 C-0.67 3.35 -0.34 1.7 0 0 Z " fill="#FDFCEB" transform="translate(193,82)"/>
<path d="M0 0 C1 1 1 1 1.1875 3.9375 C1 7 1 7 -1 9 C-0.67 9.66 -0.34 10.32 0 11 C-1.65 11 -3.3 11 -5 11 C-6.98774663 27.72841107 -6.98774663 27.72841107 -5 44 C-3.68 44 -2.36 44 -1 44 C-0.67 35.75 -0.34 27.5 0 19 C0.33 19 0.66 19 1 19 C1.02886537 23.31248609 1.04675255 27.62494762 1.0625 31.9375 C1.07087891 33.16919922 1.07925781 34.40089844 1.08789062 35.66992188 C1.09111328 36.83974609 1.09433594 38.00957031 1.09765625 39.21484375 C1.10289307 40.29886475 1.10812988 41.38288574 1.11352539 42.49975586 C1 45 1 45 0 46 C-2.9375 46.1875 -2.9375 46.1875 -6 46 C-8.89321564 43.10678436 -8.2586345 40.98831999 -8.265625 36.9453125 C-8.26753845 36.24735565 -8.2694519 35.5493988 -8.27142334 34.83029175 C-8.2727851 33.35251506 -8.26908926 31.8747264 -8.26074219 30.39697266 C-8.25007411 28.14067473 -8.26062057 25.88517882 -8.2734375 23.62890625 C-8.27211527 22.19270658 -8.26955157 20.75650741 -8.265625 19.3203125 C-8.26336914 18.01336426 -8.26111328 16.70641602 -8.25878906 15.35986328 C-8.02079472 12.26997818 -7.64170417 10.5750464 -6 8 C-6.66 7.34 -7.32 6.68 -8 6 C-7.75 2.9375 -7.75 2.9375 -7 0 C-4.31633121 -1.3418344 -2.84719317 -0.73004953 0 0 Z " fill="#FDF9E5" transform="translate(237,22)"/>
<path d="M0 0 C1.875 1.4375 1.875 1.4375 3 3 C3 3.66 3 4.32 3 5 C1.68 5 0.36 5 -1 5 C-1 4.34 -1 3.68 -1 3 C-3.31 3 -5.62 3 -8 3 C-8 5.64 -8 8.28 -8 11 C-3.94568308 12.15837626 -1.78187881 11.83691257 2 10 C2 10.99 2 11.98 2 13 C-0.27301362 15.0599186 -1.92734576 16.02461157 -5.04296875 15.953125 C-7.25917107 15.54944516 -9.00609356 15.05036143 -11 14 C-12.6875 11.3125 -12.6875 11.3125 -13 8 C-11.92691047 4.4230349 -11.10251057 1.91242254 -8.1875 -0.5 C-5.14670973 -1.19503778 -2.99418383 -0.82817851 0 0 Z " fill="#FEFAE0" transform="translate(174,77)"/>
<path d="M0 0 C2.72869407 0.03287583 5.2966618 0.56397771 8 1 C8 1.66 8 2.32 8 3 C6.35 3.33 4.7 3.66 3 4 C2.67 4.99 2.34 5.98 2 7 C3.65 7 5.3 7 7 7 C7 7.99 7 8.98 7 10 C6.360625 10.103125 5.72125 10.20625 5.0625 10.3125 C4.0415625 10.6528125 4.0415625 10.6528125 3 11 C2.67 11.99 2.34 12.98 2 14 C3.98 14 5.96 14 8 14 C8 14.66 8 15.32 8 16 C5.03 16 2.06 16 -1 16 C-1.22127098 13.70954632 -1.4266504 11.41755236 -1.625 9.125 C-1.74101562 7.84882812 -1.85703125 6.57265625 -1.9765625 5.2578125 C-1.98816406 3.64519531 -1.98816406 3.64519531 -2 2 C-1.34 1.34 -0.68 0.68 0 0 Z " fill="#FDF9E0" transform="translate(179,76)"/>
<path d="M0 0 C1.8886864 0.3716972 3.78368724 0.71576046 5.6875 1 C6.0175 0.67 6.3475 0.34 6.6875 0 C9.125 -0.1875 9.125 -0.1875 11.6875 0 C13.6875 2 13.6875 2 13.91455078 5.25634766 C13.91423382 6.64229295 13.90291759 8.02826301 13.8828125 9.4140625 C13.8799826 10.14370209 13.87715271 10.87334167 13.87423706 11.62509155 C13.86303002 13.95856028 13.8379251 16.29164703 13.8125 18.625 C13.80247085 20.20572363 13.79334489 21.78645327 13.78515625 23.3671875 C13.76308905 27.24493914 13.72855615 31.12240478 13.6875 35 C13.3575 35 13.0275 35 12.6875 35 C12.3575 24.44 12.0275 13.88 11.6875 3 C7.04844199 2.80698289 7.04844199 2.80698289 4.0625 3.625 C1.6875 4 1.6875 4 -1.3125 2 C-2.26125 2.165 -3.21 2.33 -4.1875 2.5 C-7.66712222 3.05673956 -9.21275195 2.54987403 -12.3125 1 C-12.3125 0.67 -12.3125 0.34 -12.3125 0 C-7.85470289 -0.96240298 -4.46120474 -0.88890754 0 0 Z " fill="#FEF8D1" transform="translate(131.3125,31)"/>
<path d="M0 0 C2.72265625 1.62109375 2.72265625 1.62109375 5 4 C5.55859375 7.3125 5.55859375 7.3125 5.4375 11 C5.41558594 12.216875 5.39367187 13.43375 5.37109375 14.6875 C5.03422019 17.69453981 4.57749102 19.46587788 3 22 C1.68 21.67 0.36 21.34 -1 21 C-0.01 20.34 0.98 19.68 2 19 C2.22107787 16.2114711 2.28107535 13.65346819 2.1875 10.875 C2.17396484 10.12089844 2.16042969 9.36679687 2.14648438 8.58984375 C2.11109985 6.72625873 2.05729167 4.86304022 2 3 C-1.79671609 1.97812674 -5.04852667 1.65337953 -9 2 C-11.90809543 3.85716187 -11.90809543 3.85716187 -14 6 C-13.69977741 3.09784832 -13.16229344 2.14262151 -10.9375 0.1875 C-7.08329336 -1.37058354 -3.93489847 -1.36380004 0 0 Z " fill="#FDFAE0" transform="translate(132,38)"/>
<path d="M0 0 C0.66 0.33 1.32 0.66 2 1 C2 1.66 2 2.32 2 3 C4.475 3.99 4.475 3.99 7 5 C6.67 5.66 6.34 6.32 6 7 C4.35 7 2.7 7 1 7 C2.39195915 9.7839183 4.15575779 9.97898997 7 11 C7 11.66 7 12.32 7 13 C4.03 13 1.06 13 -2 13 C-2 12.34 -2 11.68 -2 11 C-1.34 11 -0.68 11 0 11 C0.23428313 6.2102679 0.23428313 6.2102679 -2 2 C-1.34 1.34 -0.68 0.68 0 0 Z " fill="#FDF7D9" transform="translate(130,8)"/>
<path d="M0 0 C1 3 1 3 0 7 C10.56 7 21.12 7 32 7 C32 7.33 32 7.66 32 8 C21.11 8 10.22 8 -1 8 C-1.66 6.68 -2.32 5.36 -3 4 C-2.01 2.68 -1.02 1.36 0 0 Z " fill="#FDF9E2" transform="translate(74,60)"/>
<path d="M0 0 C3.72595366 0.72409138 7.13855232 1.18099929 10.9375 1.0625 C7.97471286 2.70849285 5.32443192 3.71512237 1.9375 4.0625 C0.9475 3.4025 -0.0425 2.7425 -1.0625 2.0625 C-2.01125 2.2275 -2.96 2.3925 -3.9375 2.5625 C-7.41712222 3.11923956 -8.96275195 2.61237403 -12.0625 1.0625 C-12.0625 0.7325 -12.0625 0.4025 -12.0625 0.0625 C-7.69930541 -0.86736114 -4.36696647 -0.8621237 0 0 Z " fill="#FEFBE3" transform="translate(131.0625,30.9375)"/>
<path d="M0 0 C1.921875 0.328125 1.921875 0.328125 4 1 C5.69726294 4.73397847 6.23990744 7.92157346 6 12 C4.078125 11.3203125 4.078125 11.3203125 2 10 C1.171875 7.6171875 1.171875 7.6171875 0.75 4.875 C0.60046875 3.96492188 0.4509375 3.05484375 0.296875 2.1171875 C0.19890625 1.41851562 0.1009375 0.71984375 0 0 Z " fill="#FDFBF1" transform="translate(154,78)"/>
<path d="M0 0 C1.32 0 2.64 0 4 0 C4.474375 0.495 4.94875 0.99 5.4375 1.5 C6.96378798 3.285826 6.96378798 3.285826 9.6875 3.1875 C10.450625 3.125625 11.21375 3.06375 12 3 C11.67 3.99 11.34 4.98 11 6 C5.62694301 5.7357513 5.62694301 5.7357513 3 5 C1 2.4375 1 2.4375 0 0 Z " fill="#FEFCDF" transform="translate(88,87)"/>
<path d="M0 0 C4.29 0 8.58 0 13 0 C13 0.99 13 1.98 13 3 C12.01 2.67 11.02 2.34 10 2 C4.96584543 1.62709966 2.10957626 2.01121727 -2 5 C-1.34 3.35 -0.68 1.7 0 0 Z " fill="#FDF7DF" transform="translate(165,38)"/>
<path d="M0 0 C0.33 0.66 0.66 1.32 1 2 C2.65 2 4.3 2 6 2 C5.67 2.99 5.34 3.98 5 5 C3.68 5 2.36 5 1 5 C0.67 6.32 0.34 7.64 0 9 C0 6.03 0 3.06 0 0 Z " fill="#FDFDF8" transform="translate(109,82)"/>
<path d="M0 0 C0.33 0.99 0.66 1.98 1 3 C-0.98 4.98 -2.96 6.96 -5 9 C-5.66 8.67 -6.32 8.34 -7 8 C-4.69 5.36 -2.38 2.72 0 0 Z " fill="#FEF9E5" transform="translate(87,45)"/>
<path d="M0 0 C2.0625 0.4375 2.0625 0.4375 4 1 C3.01 1.66 2.02 2.32 1 3 C1.33 4.65 1.66 6.3 2 8 C0.68 7.34 -0.64 6.68 -2 6 C-1.125 1.125 -1.125 1.125 0 0 Z " fill="#FEF6DA" transform="translate(74,31)"/>
<path d="M0 0 C2.31 0.33 4.62 0.66 7 1 C7 1.99 7 2.98 7 4 C4.69 4 2.38 4 0 4 C0 2.68 0 1.36 0 0 Z " fill="#FDFCDF" transform="translate(66,88)"/>
<path d="M0 0 C0.66 0.33 1.32 0.66 2 1 C1.34 2.32 0.68 3.64 0 5 C0.99 5.33 1.98 5.66 3 6 C2.67 7.32 2.34 8.64 2 10 C0.4375 8.375 0.4375 8.375 -1 6 C-0.6875 2.75 -0.6875 2.75 0 0 Z " fill="#FEFADB" transform="translate(193,55)"/>
<path d="M0 0 C2.97 0.495 2.97 0.495 6 1 C6 4 6 4 5 6 C3.68 5.01 2.36 4.02 1 3 C1.66 3 2.32 3 3 3 C3 2.34 3 1.68 3 1 C2.01 0.67 1.02 0.34 0 0 Z " fill="#FEFAE2" transform="translate(87,76)"/>
<path d="M0 0 C1.8871875 0.0309375 1.8871875 0.0309375 3.8125 0.0625 C3.8125 0.3925 3.8125 0.7225 3.8125 1.0625 C3.19761719 1.18367188 2.58273438 1.30484375 1.94921875 1.4296875 C1.14097656 1.59726562 0.33273438 1.76484375 -0.5 1.9375 C-1.30050781 2.09992187 -2.10101563 2.26234375 -2.92578125 2.4296875 C-5.44051118 3.00728999 -5.44051118 3.00728999 -8.1875 5.0625 C-7.875 3.125 -7.875 3.125 -7.1875 1.0625 C-4.43671116 0.14557039 -2.82801087 -0.04636083 0 0 Z " fill="#FDF6DF" transform="translate(49.1875,37.9375)"/>
<path d="M0 0 C5.57142857 5.14285714 5.57142857 5.14285714 6 9 C0.42857143 3.85714286 0.42857143 3.85714286 0 0 Z " fill="#FCF6E1" transform="translate(109,57)"/>
</svg>
