<?xml version="1.0" encoding="UTF-8"?>
<svg version="1.1" xmlns="http://www.w3.org/2000/svg" width="275" height="236">
<path d="M0 0 C90.75 0 181.5 0 275 0 C275 77.88 275 155.76 275 236 C184.25 236 93.5 236 0 236 C0 158.12 0 80.24 0 0 Z " fill="#FEBC59" transform="translate(0,0)"/>
<path d="M0 0 C0.78375 0.495 1.5675 0.99 2.375 1.5 C2.375 0.84 2.375 0.18 2.375 -0.5 C4.37454746 -0.54254356 6.37541636 -0.54080783 8.375 -0.5 C9.375 0.5 9.375 0.5 9.48852539 3.73461914 C9.48836631 5.16814126 9.48267407 6.60166912 9.47265625 8.03515625 C9.4712413 8.78840683 9.46982635 9.54165741 9.46836853 10.31773376 C9.46275376 12.7326956 9.45019883 15.14756601 9.4375 17.5625 C9.4324869 19.19596221 9.42792366 20.82942586 9.42382812 22.46289062 C9.41277954 26.47529585 9.39550506 30.48763241 9.375 34.5 C3.6328125 35.5703125 3.6328125 35.5703125 1.3125 34.9375 C-0.7156912 34.28319331 -0.7156912 34.28319331 -2.875 35.4375 C-7.1476983 37.08831525 -11.26260329 37.38470322 -15.5546875 35.77734375 C-20.17846406 33.32654373 -23.29626632 30.15746736 -25.625 25.5 C-25.80278623 22.90024068 -25.90253022 20.35175193 -25.9375 17.75 C-25.96650391 17.04617187 -25.99550781 16.34234375 -26.02539062 15.6171875 C-26.08787795 10.44515968 -24.98326062 7.62428722 -21.625 3.5 C-15.27315575 -2.23215213 -7.92357064 -3.27871889 0 0 Z " fill="#FEFCF9" transform="translate(150.625,94.5)"/>
<path d="M0 0 C3.3125 2 3.3125 2 6 4 C10.05685332 4.35936913 10.05685332 4.35936913 13.125 2 C17.61177453 -0.71136267 21.8942745 -0.69201569 27 0 C32.36787898 1.88869816 35.45991584 4.91983169 38 10 C38.08510205 11.9593604 38.10717656 13.92162794 38.09765625 15.8828125 C38.09443359 17.04941406 38.09121094 18.21601562 38.08789062 19.41796875 C38.07532227 21.25294922 38.07532227 21.25294922 38.0625 23.125 C38.05798828 24.35605469 38.05347656 25.58710937 38.04882812 26.85546875 C38.0370133 29.90369392 38.02054028 32.95182314 38 36 C35.125 36.625 35.125 36.625 32 37 C29.447275 34.447275 29.7271642 33.42247668 29.65625 29.87890625 C29.62660156 28.86119141 29.59695312 27.84347656 29.56640625 26.79492188 C29.54449219 25.72822266 29.52257812 24.66152344 29.5 23.5625 C29.45663789 21.45943751 29.40492679 19.35652593 29.34375 17.25390625 C29.32505859 16.31877197 29.30636719 15.3836377 29.28710938 14.42016602 C29.15452076 11.74122931 29.15452076 11.74122931 27 9 C24.01252791 7.96700376 21.14293495 7.70687653 18 8 C14.95524698 10.20913543 14.95524698 10.20913543 13 13 C12.67 13.33 12.34 13.66 12 14 C11.86724795 15.53682435 11.79671826 17.07914067 11.75390625 18.62109375 C11.72103516 19.55630859 11.68816406 20.49152344 11.65429688 21.45507812 C11.59322266 23.43934031 11.53591545 25.42372211 11.48242188 27.40820312 C11.44826172 28.34470703 11.41410156 29.28121094 11.37890625 30.24609375 C11.34132202 31.54051392 11.34132202 31.54051392 11.30297852 32.86108398 C11 35 11 35 9 37 C6.5 37.25 6.5 37.25 4 37 C1.447275 34.447275 1.7271642 33.42247668 1.65625 29.87890625 C1.62660156 28.86119141 1.59695312 27.84347656 1.56640625 26.79492188 C1.54449219 25.72822266 1.52257812 24.66152344 1.5 23.5625 C1.45663789 21.45943751 1.40492679 19.35652593 1.34375 17.25390625 C1.32505859 16.31877197 1.30636719 15.3836377 1.28710938 14.42016602 C1.15452076 11.74122931 1.15452076 11.74122931 -1 9 C-6.02507032 7.57175307 -6.02507032 7.57175307 -10.82421875 8.953125 C-13.50439364 11.10764816 -14.90724888 12.72174665 -16 16 C-16.12317073 17.45674076 -16.20054059 18.91767746 -16.24609375 20.37890625 C-16.27896484 21.21744141 -16.31183594 22.05597656 -16.34570312 22.91992188 C-16.40703202 24.68541125 -16.46430676 26.451046 -16.51757812 28.21679688 C-16.55173828 29.05404297 -16.58589844 29.89128906 -16.62109375 30.75390625 C-16.6461499 31.52033447 -16.67120605 32.2867627 -16.69702148 33.07641602 C-17 35 -17 35 -19 37 C-23.55555556 36.44444444 -23.55555556 36.44444444 -25 35 C-25.10082764 32.56339554 -25.13972603 30.15575299 -25.1328125 27.71875 C-25.13376923 26.99006714 -25.13472595 26.26138428 -25.13571167 25.51062012 C-25.13639335 23.9672029 -25.13453988 22.42378283 -25.13037109 20.88037109 C-25.12502262 18.510026 -25.13031642 16.13987041 -25.13671875 13.76953125 C-25.13605797 12.27343708 -25.1347768 10.77734303 -25.1328125 9.28125 C-25.13483673 8.56771362 -25.13686096 7.85417725 -25.13894653 7.11901855 C-25.11495191 2.11495191 -25.11495191 2.11495191 -24 1 C-21.0625 0.8125 -21.0625 0.8125 -18 1 C-17.34 1.66 -16.68 2.32 -16 3 C-15.030625 2.505 -14.06125 2.01 -13.0625 1.5 C-8.72298259 -0.33594967 -4.65462845 -0.80691552 0 0 Z " fill="#FEFCF9" transform="translate(44,93)"/>
<path d="M0 0 C1.19367188 -0.01675781 2.38734375 -0.03351563 3.6171875 -0.05078125 C8.30931001 0.43515126 11.66842101 1.90290743 15.0625 5.1875 C16.44123864 7.94497729 16.00808373 9.42240779 15.125 12.3125 C12.375 12.5625 12.375 12.5625 9.125 12.3125 C8.526875 11.6525 7.92875 10.9925 7.3125 10.3125 C4.32156664 7.57793235 2.1681064 7.91042401 -1.75390625 7.9765625 C-4.17071822 8.2079631 -4.17071822 8.2079631 -6.875 10.3125 C-6.875 11.3025 -6.875 12.2925 -6.875 13.3125 C-6.29008789 13.41272461 -5.70517578 13.51294922 -5.10253906 13.61621094 C-2.44019449 14.08193643 0.2171264 14.57192829 2.875 15.0625 C3.79539063 15.21976563 4.71578125 15.37703125 5.6640625 15.5390625 C9.60434442 16.28143446 12.45955497 16.82835885 15.734375 19.2109375 C17.89232271 22.47210567 17.81205987 25.59808259 17.125 29.3125 C15.30864983 33.32360663 13.48742291 35.45208315 9.5 37.1875 C3.51513442 39.05986018 -2.84987028 39.36190816 -8.75 37.0625 C-11.80027845 35.35434407 -13.84432564 34.1554441 -15.875 31.3125 C-16.125 28.0625 -16.125 28.0625 -15.875 25.3125 C-13.895 24.9825 -11.915 24.6525 -9.875 24.3125 C-9.25625 25.55 -9.25625 25.55 -8.625 26.8125 C-4.73468719 30.34914801 -1.64105689 29.74760694 3.4453125 29.5859375 C6.09421428 29.47543734 6.09421428 29.47543734 8.125 28.3125 C8.125 26.9925 8.125 25.6725 8.125 24.3125 C6.60519531 24.14814453 6.60519531 24.14814453 5.0546875 23.98046875 C3.70305539 23.82090107 2.35149657 23.66071167 1 23.5 C0.33484375 23.42974609 -0.3303125 23.35949219 -1.015625 23.28710938 C-6.3614247 22.63198686 -10.76501858 21.28181599 -14.75 17.5625 C-16.41986097 14.22277806 -16.38367676 12.0004065 -15.875 8.3125 C-12.01116959 1.5814621 -7.42556444 0.02395343 0 0 Z " fill="#FEFCF8" transform="translate(224.875,92.6875)"/>
<path d="M0 0 C3.91801118 3.63815324 6.30429259 6.89964131 6.97705078 12.22338867 C7.08973923 15.40822697 7.0724497 18.56411984 7 21.75 C6.99871094 22.84634766 6.99742187 23.94269531 6.99609375 25.07226562 C6.90632798 33.15617202 6.90632798 33.15617202 4.625 35.4375 C0.06944444 34.88194444 0.06944444 34.88194444 -1.375 33.4375 C-1.47166468 31.86164096 -1.50699769 30.28192244 -1.515625 28.703125 C-1.54462891 27.25292969 -1.54462891 27.25292969 -1.57421875 25.7734375 C-1.60781259 23.73196584 -1.6262819 21.69018386 -1.62890625 19.6484375 C-1.76329533 13.52360312 -1.76329533 13.52360312 -4.73828125 8.2734375 C-7.2620085 6.26291922 -7.2620085 6.26291922 -10.3125 5.8125 C-14.56372524 6.68009699 -16.28001057 8.41448707 -19.375 11.4375 C-20.5489553 13.78541059 -20.54421612 15.32003664 -20.62109375 17.9375 C-20.65396484 18.824375 -20.68683594 19.71125 -20.72070312 20.625 C-20.78189702 22.4998767 -20.83918943 24.37488481 -20.89257812 26.25 C-20.92673828 27.136875 -20.96089844 28.02375 -20.99609375 28.9375 C-21.0211499 29.7521875 -21.04620605 30.566875 -21.07202148 31.40625 C-21.375 33.4375 -21.375 33.4375 -23.375 35.4375 C-27.93055556 34.88194444 -27.93055556 34.88194444 -29.375 33.4375 C-29.47582764 31.00089554 -29.51472603 28.59325299 -29.5078125 26.15625 C-29.50876923 25.42756714 -29.50972595 24.69888428 -29.51071167 23.94812012 C-29.51139335 22.4047029 -29.50953988 20.86128283 -29.50537109 19.31787109 C-29.50002262 16.947526 -29.50531642 14.57737041 -29.51171875 12.20703125 C-29.51105797 10.71093708 -29.5097768 9.21484303 -29.5078125 7.71875 C-29.50983673 7.00521362 -29.51186096 6.29167725 -29.51394653 5.55651855 C-29.48995191 0.55245191 -29.48995191 0.55245191 -28.375 -0.5625 C-25.4375 -0.75 -25.4375 -0.75 -22.375 -0.5625 C-21.715 0.0975 -21.055 0.7575 -20.375 1.4375 C-19.42625 0.9425 -18.4775 0.4475 -17.5 -0.0625 C-11.61575477 -2.55703804 -5.7992638 -2.68484435 0 0 Z " fill="#FEFDFC" transform="translate(197.375,94.5625)"/>
<path d="M0 0 C1.25159912 0.00523682 2.50319824 0.01047363 3.79272461 0.01586914 C4.78942421 0.01799156 4.78942421 0.01799156 5.80625916 0.02015686 C7.93590735 0.02577021 10.06545175 0.03832485 12.19506836 0.05102539 C13.63582205 0.05603868 15.07657739 0.06060188 16.51733398 0.06469727 C20.05577938 0.07574394 23.59416375 0.09301747 27.13256836 0.11352539 C28.2722168 4.87768555 28.2722168 4.87768555 27.01538086 7.00024414 C26.43530273 7.59450195 25.85522461 8.18875977 25.25756836 8.80102539 C24.29270508 9.82196289 24.29270508 9.82196289 23.30834961 10.86352539 C22.5903418 11.60602539 21.87233398 12.34852539 21.13256836 13.11352539 C19.56396127 14.83715395 18.00154974 16.56643918 16.44506836 18.30102539 C15.71932617 19.09895508 14.99358398 19.89688477 14.24584961 20.71899414 C12.12384344 23.12341148 10.11535848 25.59363636 8.13256836 28.11352539 C8.69766113 28.13334473 9.26275391 28.15316406 9.8449707 28.17358398 C12.39964833 28.26870776 14.95349377 28.37843597 17.50756836 28.48852539 C18.39702148 28.51946289 19.28647461 28.55040039 20.20288086 28.58227539 C21.05366211 28.62094727 21.90444336 28.65961914 22.78100586 28.69946289 C23.56652832 28.73088379 24.35205078 28.76230469 25.16137695 28.79467773 C27.13256836 29.11352539 27.13256836 29.11352539 29.13256836 31.11352539 C28.59685407 34.64923968 28.59685407 34.64923968 27.13256836 36.11352539 C22.73257891 36.33185528 18.32722024 36.29931685 13.92236328 36.29882812 C11.70773054 36.3010129 9.49359712 36.3191607 7.27905273 36.33813477 C5.87736174 36.34106895 4.47566836 36.34305358 3.07397461 36.34399414 C1.79208252 36.34810303 0.51019043 36.35221191 -0.81054688 36.35644531 C-3.86743164 36.11352539 -3.86743164 36.11352539 -5.86743164 34.11352539 C-5.67083279 30.00282225 -2.94924692 27.72571678 -0.24243164 24.86352539 C0.6682887 23.88879171 1.57844154 22.91352751 2.48803711 21.93774414 C3.36073242 21.00575195 4.23342773 20.07375977 5.13256836 19.11352539 C6.45316604 17.6415838 7.76687398 16.16339713 9.07006836 14.67602539 C9.5947168 14.07918945 10.11936523 13.48235352 10.65991211 12.86743164 C12.22694958 11.00111911 13.68794174 9.07563021 15.13256836 7.11352539 C13.21831055 7.14833008 13.21831055 7.14833008 11.26538086 7.18383789 C9.59611586 7.20259368 7.92684456 7.22079408 6.25756836 7.23852539 C4.99493164 7.26366211 4.99493164 7.26366211 3.70678711 7.28930664 C2.90112305 7.29575195 2.09545898 7.30219727 1.26538086 7.30883789 C0.52175293 7.31931152 -0.221875 7.32978516 -0.98803711 7.34057617 C-2.86743164 7.11352539 -2.86743164 7.11352539 -4.86743164 5.11352539 C-4.28539335 1.27207269 -4.04527243 0.16015766 0 0 Z " fill="#FEFDFA" transform="translate(93.867431640625,93.886474609375)"/>
<path d="M0 0 C3.92419143 0.26161276 5.66686163 0.89230595 8.75 3.25 C10.22694068 6.20388136 9.95930797 8.90161882 10 12.1875 C10.02578125 13.43402344 10.0515625 14.68054688 10.078125 15.96484375 C9.75 19.25 9.75 19.25 8.421875 21.12890625 C4.59617261 23.6942721 0.20536306 23.92369401 -4.25 23.25 C-6.68119623 21.37984906 -7.89069173 19.96861655 -9.25 17.25 C-9.87165748 11.73501005 -10.31404786 7.61416392 -6.8125 3.125 C-5.966875 2.50625 -5.12125 1.8875 -4.25 1.25 C-3.25 0.25 -3.25 0.25 0 0 Z " fill="#FABA59" transform="translate(142.25,99.75)"/>
<path d="M0 0 C3 0.125 3 0.125 4 1.125 C4.11322434 3.54990371 4.16416875 5.94526862 4.16796875 8.37109375 C4.17129715 9.09740494 4.17462555 9.82371613 4.17805481 10.57203674 C4.18312675 12.11125046 4.18546305 13.6504752 4.18530273 15.18969727 C4.18748766 17.54917471 4.20563565 19.90818361 4.22460938 22.26757812 C4.22754352 23.76041506 4.22952817 25.25325423 4.23046875 26.74609375 C4.23765427 27.45446884 4.24483978 28.16284393 4.25224304 28.89268494 C4.22882337 33.89617663 4.22882337 33.89617663 2 36.125 C-1.125 35.75 -1.125 35.75 -4 35.125 C-4.0246519 30.30119198 -4.04283693 25.47742033 -4.05493164 20.65356445 C-4.05997174 19.01130536 -4.06680378 17.36905077 -4.07543945 15.72680664 C-4.08751926 13.37124521 -4.09323139 11.01574291 -4.09765625 8.66015625 C-4.10281754 7.92160904 -4.10797882 7.18306183 -4.11329651 6.4221344 C-4.1134925 4.65601912 -4.06194719 2.89002854 -4 1.125 C-3 0.125 -3 0.125 0 0 Z " fill="#FEFDFB" transform="translate(250,93.875)"/>
<path d="M0 0 C0.66 0 1.32 0 2 0 C2.33 1.65 2.66 3.3 3 5 C3.86625 3.7625 3.86625 3.7625 4.75 2.5 C6.85845994 0.3177747 7.92376489 0.00842651 11.00390625 -0.33203125 C14.01605179 -0.31424999 16.99585197 -0.21560871 20 0 C20 0.66 20 1.32 20 2 C18.02 2 16.04 2 14 2 C14 3.65 14 5.3 14 7 C15.65 7 17.3 7 19 7 C19 7.33 19 7.66 19 8 C17.35 8 15.7 8 14 8 C14 9.65 14 11.3 14 13 C15.98 13 17.96 13 20 13 C20 13.66 20 14.32 20 15 C9.31569507 15.76681614 9.31569507 15.76681614 6.08984375 13.88671875 C4.75 12.5 4.75 12.5 3 10 C2.67 11.65 2.34 13.3 2 15 C1.34 15 0.68 15 0 15 C0 10.05 0 5.1 0 0 Z " fill="#FDC063" transform="translate(113,139)"/>
<path d="M0 0 C14.85 0 29.7 0 45 0 C45 1.32 45 2.64 45 4 C30.15 4 15.3 4 0 4 C0 2.68 0 1.36 0 0 Z " fill="#FFFCF8" transform="translate(209,145)"/>
<path d="M0 0 C14.85 0 29.7 0 45 0 C45 1.32 45 2.64 45 4 C30.15 4 15.3 4 0 4 C0 2.68 0 1.36 0 0 Z " fill="#FFFCF8" transform="translate(19,145)"/>
<path d="M0 0 C0.66 0 1.32 0 2 0 C2 4.29 2 8.58 2 13 C3.65 13 5.3 13 7 13 C8.65 9.04 10.3 5.08 12 1 C13.32 1 14.64 1 16 1 C16.67260351 2.76858691 17.33788395 4.53996016 18 6.3125 C18.37125 7.29863281 18.7425 8.28476563 19.125 9.30078125 C20 12 20 12 20 15 C19.34 15 18.68 15 18 15 C17.67 14.34 17.34 13.68 17 13 C14.67843403 12.59270772 12.3431213 12.25561323 10 12 C10 12.99 10 13.98 10 15 C6.7 15 3.4 15 0 15 C0 10.05 0 5.1 0 0 Z " fill="#FEF6EA" transform="translate(157,139)"/>
<path d="M0 0 C3 1 3 1 4.16796875 3.06640625 C4.50441406 3.89011719 4.84085937 4.71382812 5.1875 5.5625 C5.53167969 6.38878906 5.87585938 7.21507812 6.23046875 8.06640625 C6.48441406 8.70449219 6.73835938 9.34257812 7 10 C9.52349243 6.87567603 11.27256146 3.61939504 13 0 C13.66 0 14.32 0 15 0 C15 4.95 15 9.9 15 15 C14.34 15 13.68 15 13 15 C12.67 12.69 12.34 10.38 12 8 C11.01 10.31 10.02 12.62 9 15 C6 14 6 14 4.3125 10.9375 C3.879375 9.968125 3.44625 8.99875 3 8 C2.67 10.31 2.34 12.62 2 15 C1.34 15 0.68 15 0 15 C0 10.05 0 5.1 0 0 Z " fill="#FDF5E9" transform="translate(70,139)"/>
<path d="M0 0 C7 0 7 0 9 1.1875 C10.41967233 3.7606561 9.74657834 5.21729893 9 8 C8.78918149 11.89459074 8.78918149 11.89459074 10 15 C9.01 15 8.02 15 7 15 C5.95107762 13.36368108 4.95093297 11.69514137 4 10 C3.34 9.67 2.68 9.34 2 9 C2 10.98 2 12.96 2 15 C1.34 15 0.68 15 0 15 C0 10.05 0 5.1 0 0 Z " fill="#FDF1DF" transform="translate(101,139)"/>
<path d="M0 0 C6.0546875 -0.1953125 6.0546875 -0.1953125 8 0 C10 2 10 2 10.25 4.5 C10 7 10 7 8 9 C5.375 9.125 5.375 9.125 3 9 C3 10.98 3 12.96 3 15 C2.01 15 1.02 15 0 15 C0 10.05 0 5.1 0 0 Z " fill="#FDEDD7" transform="translate(145,139)"/>
<path d="M0 0 C0.99 0.33 1.98 0.66 3 1 C4.16796875 3.3984375 4.16796875 3.3984375 5.1875 6.375 C5.53167969 7.35210937 5.87585938 8.32921875 6.23046875 9.3359375 C7 12 7 12 7 15 C6.34 15 5.68 15 5 15 C4.67 14.34 4.34 13.68 4 13 C1.67843403 12.59270772 -0.6568787 12.25561323 -3 12 C-3 12.99 -3 13.98 -3 15 C-3.66 15 -4.32 15 -5 15 C-3.97137215 9.55432314 -2.75385216 4.88182883 0 0 Z " fill="#FDF5E8" transform="translate(92,139)"/>
<path d="M0 0 C8.91 0 17.82 0 27 0 C26.01 1.485 26.01 1.485 25 3 C22.69335938 3.38818359 22.69335938 3.38818359 19.84375 3.3984375 C18.82152344 3.40230469 17.79929687 3.40617188 16.74609375 3.41015625 C15.67488281 3.39855469 14.60367188 3.38695312 13.5 3.375 C11.89318359 3.39240234 11.89318359 3.39240234 10.25390625 3.41015625 C9.23167969 3.40628906 8.20945312 3.40242187 7.15625 3.3984375 C6.21587891 3.39505371 5.27550781 3.39166992 4.30664062 3.38818359 C3.16485352 3.19603271 3.16485352 3.19603271 2 3 C1.34 2.01 0.68 1.02 0 0 Z " fill="#EDB052" transform="translate(92,130)"/>
<path d="M0 0 C2.64 0 5.28 0 8 0 C8 0.66 8 1.32 8 2 C6.02 2 4.04 2 2 2 C2 3.65 2 5.3 2 7 C3.98 7 5.96 7 8 7 C8 7.66 8 8.32 8 9 C6.35 9 4.7 9 3 9 C3 10.32 3 11.64 3 13 C4.65 13 6.3 13 8 13 C8 13.66 8 14.32 8 15 C5.36 15 2.72 15 0 15 C0 10.05 0 5.1 0 0 Z " fill="#FCEED8" transform="translate(194,139)"/>
<path d="M0 0 C2.64 0 5.28 0 8 0 C8 0.66 8 1.32 8 2 C6.02 2 4.04 2 2 2 C2 3.65 2 5.3 2 7 C3.98 7 5.96 7 8 7 C8 7.66 8 8.32 8 9 C6.35 9 4.7 9 3 9 C3 10.32 3 11.64 3 13 C4.65 13 6.3 13 8 13 C8 13.66 8 14.32 8 15 C5.36 15 2.72 15 0 15 C0 10.05 0 5.1 0 0 Z " fill="#FCEED8" transform="translate(144,68)"/>
<path d="M0 0 C1.4375 2.0625 1.4375 2.0625 2 4 C1.1646875 3.505 1.1646875 3.505 0.3125 3 C-2.35263324 1.84750995 -4.12393149 1.69725595 -7 2 C-9.41121859 3.95633975 -9.41121859 3.95633975 -9.125 7.625 C-9.08375 8.73875 -9.0425 9.8525 -9 11 C-3.42169984 11.12469099 -3.42169984 11.12469099 2 10 C0.9375 12 0.9375 12 -1 14 C-4.4375 14.5625 -4.4375 14.5625 -8 14 C-10.5 11.9375 -10.5 11.9375 -12 9 C-12 5.19715329 -11.7968187 2.98069994 -9.375 0 C-5.89241384 -1.46635207 -3.59184098 -0.99773361 0 0 Z " fill="#FDF4E6" transform="translate(190,140)"/>
<path d="M0 0 C0.66 0 1.32 0 2 0 C2.33 1.65 2.66 3.3 3 5 C4.175625 3.7625 4.175625 3.7625 5.375 2.5 C8 0 8 0 10 0 C8.62845496 2.95409701 7.01136276 5.44008376 5 8 C7.475 11.465 7.475 11.465 10 15 C7.11562221 13.70700306 5.12780579 12.34058637 3 10 C2.67 11.65 2.34 13.3 2 15 C1.34 15 0.68 15 0 15 C0 10.05 0 5.1 0 0 Z " fill="#FEF9F2" transform="translate(113,139)"/>
<path d="M0 0 C2.64 0 5.28 0 8 0 C8 0.66 8 1.32 8 2 C6.02 2 4.04 2 2 2 C2 3.65 2 5.3 2 7 C3.65 7 5.3 7 7 7 C7 7.33 7 7.66 7 8 C5.35 8 3.7 8 2 8 C2 9.65 2 11.3 2 13 C3.98 13 5.96 13 8 13 C8 13.66 8 14.32 8 15 C5.36 15 2.72 15 0 15 C0 10.05 0 5.1 0 0 Z " fill="#FEF6EB" transform="translate(125,139)"/>
<path d="M0 0 C2.33944736 0.28730055 4.6739143 0.61936779 7 1 C7.125 3.375 7.125 3.375 7 6 C6.34 6.66 5.68 7.32 5 8 C0.44444444 7.44444444 0.44444444 7.44444444 -1 6 C-1.125 3.5 -1.125 3.5 -1 1 C-0.67 0.67 -0.34 0.34 0 0 Z " fill="#FEFAF5" transform="translate(247,84)"/>
<path d="M0 0 C0.33 0 0.66 0 1 0 C1 2.31 1 4.62 1 7 C3.64 7 6.28 7 9 7 C9 4.69 9 2.38 9 0 C9.66 0 10.32 0 11 0 C11 4.95 11 9.9 11 15 C10.34 15 9.68 15 9 15 C9 12.69 9 10.38 9 8 C6.36 8 3.72 8 1 8 C1 10.31 1 12.62 1 15 C0.67 15 0.34 15 0 15 C0 10.05 0 5.1 0 0 Z " fill="#FEFCFA" transform="translate(131,68)"/>
<path d="M0 0 C0.66 0 1.32 0 2 0 C2 2.31 2 4.62 2 7 C3.32 7 4.64 7 6 7 C7.32 9.31 8.64 11.62 10 14 C9.01 14 8.02 14 7 14 C5.95107762 12.36368108 4.95093297 10.69514137 4 9 C3.34 8.67 2.68 8.34 2 8 C2 9.98 2 11.96 2 14 C1.34 14 0.68 14 0 14 C0 9.38 0 4.76 0 0 Z " fill="#FDF8F0" transform="translate(101,140)"/>
<path d="M0 0 C3.3 0 6.6 0 10 0 C10 0.66 10 1.32 10 2 C8.68 2 7.36 2 6 2 C6 6.29 6 10.58 6 15 C5.34 15 4.68 15 4 15 C4 10.71 4 6.42 4 2 C2.68 2 1.36 2 0 2 C0 1.34 0 0.68 0 0 Z " fill="#FEF8EF" transform="translate(134,139)"/>
<path d="M0 0 C3.3 0 6.6 0 10 0 C10 0.66 10 1.32 10 2 C8.68 2 7.36 2 6 2 C6 6.29 6 10.58 6 15 C5.34 15 4.68 15 4 15 C4 10.71 4 6.42 4 2 C2.68 2 1.36 2 0 2 C0 1.34 0 0.68 0 0 Z " fill="#FEF8EF" transform="translate(119,68)"/>
<path d="M0 0 C0.66 0 1.32 0 2 0 C2.66 2.31 3.32 4.62 4 7 C4.33 5.68 4.66 4.36 5 3 C6.25664978 5.90600261 7 7.79604584 7 11 C6.34 11 5.68 11 5 11 C4.67 10.34 4.34 9.68 4 9 C0.97065509 8.34227572 0.97065509 8.34227572 -2 8 C-1.125 2.25 -1.125 2.25 0 0 Z " fill="#FCF0DD" transform="translate(170,143)"/>
<path d="M0 0 C0.66 0 1.32 0 2 0 C2.66 2.31 3.32 4.62 4 7 C4.33 5.68 4.66 4.36 5 3 C6.25664978 5.90600261 7 7.79604584 7 11 C6.34 11 5.68 11 5 11 C4.67 10.34 4.34 9.68 4 9 C0.97065509 8.34227572 0.97065509 8.34227572 -2 8 C-1.125 2.25 -1.125 2.25 0 0 Z " fill="#FCF0DD" transform="translate(92,143)"/>
<path d="M0 0 C-0.57492188 0.25910156 -1.14984375 0.51820312 -1.7421875 0.78515625 C-4.18369734 2.09884061 -6.04981183 3.60297053 -8.125 5.4375 C-9.14980469 6.33275391 -9.14980469 6.33275391 -10.1953125 7.24609375 C-12.19828178 9.0698277 -12.19828178 9.0698277 -14 12 C-13.92593401 8.88922823 -13.58220726 6.71408847 -11.5859375 4.265625 C-7.81619886 0.77820159 -5.32907716 -0.77986495 0 0 Z " fill="#EFBA6A" transform="translate(190,100)"/>
<path d="M0 0 C1.65 0 3.3 0 5 0 C5.5625 1.9375 5.5625 1.9375 6 4 C5 5 5 5 2.4375 5.0625 C1.2309375 5.0315625 1.2309375 5.0315625 0 5 C0 3.35 0 1.7 0 0 Z " fill="#FABE62" transform="translate(103,141)"/>
<path d="M0 0 C0.680625 0.12375 1.36125 0.2475 2.0625 0.375 C1.47984375 0.63023438 0.8971875 0.88546875 0.296875 1.1484375 C-2.15138223 2.49241087 -3.75493248 3.99310296 -5.6875 6 C-6.30109375 6.63164063 -6.9146875 7.26328125 -7.546875 7.9140625 C-8.00578125 8.39617187 -8.4646875 8.87828125 -8.9375 9.375 C-9.2675 8.385 -9.5975 7.395 -9.9375 6.375 C-3.86310175 0.49316193 -3.86310175 0.49316193 0 0 Z " fill="#EEB763" transform="translate(37.9375,99.625)"/>
<path d="M0 0 C1.65 0 3.3 0 5 0 C5 1.65 5 3.3 5 5 C3.35 5 1.7 5 0 5 C0 3.35 0 1.7 0 0 Z " fill="#FBBC5D" transform="translate(148,141)"/>
<path d="M0 0 C0.66 0 1.32 0 2 0 C2 4.95 2 9.9 2 15 C1.67 15 1.34 15 1 15 C1 11.7 1 8.4 1 5 C0.34 5 -0.32 5 -1 5 C-0.67 3.35 -0.34 1.7 0 0 Z " fill="#FEFBF5" transform="translate(83,139)"/>
<path d="M0 0 C-0.57234375 0.26554687 -1.1446875 0.53109375 -1.734375 0.8046875 C-4.1076012 2.05676891 -6.12213286 3.4936352 -8.25 5.125 C-8.95640625 5.66382812 -9.6628125 6.20265625 -10.390625 6.7578125 C-10.92171875 7.16773437 -11.4528125 7.57765625 -12 8 C-9.83199867 1.31532922 -6.98981916 -0.47657858 0 0 Z " fill="#EEB867" transform="translate(68,100)"/>
<path d="M0 0 C0 0.33 0 0.66 0 1 C-1.5778125 1.37125 -1.5778125 1.37125 -3.1875 1.75 C-6.8133541 2.76700786 -9.19910772 4.45373429 -12 7 C-9.69656113 0.26687101 -6.85869086 -0.25881852 0 0 Z " fill="#EEBC70" transform="translate(146,100)"/>
<path d="M0 0 C0.66 0 1.32 0 2 0 C2.33 1.98 2.66 3.96 3 6 C1.68 6 0.36 6 -1 6 C-0.67 4.02 -0.34 2.04 0 0 Z " fill="#FAC16C" transform="translate(170,143)"/>
<path d="M0 0 C0.66 0 1.32 0 2 0 C2.33 1.98 2.66 3.96 3 6 C1.68 6 0.36 6 -1 6 C-0.67 4.02 -0.34 2.04 0 0 Z " fill="#FAC16C" transform="translate(92,143)"/>
<path d="M0 0 C-1.39332574 3.36720387 -2.9789286 4.9859524 -6 7 C-6 4 -6 4 -4.125 1.8125 C-2 0 -2 0 0 0 Z " fill="#FDF1DE" transform="translate(123,139)"/>
</svg>
